<svg width="65" height="41" viewBox="0 0 65 41" fill="none" xmlns="http://www.w3.org/2000/svg">
<path d="M6.26644 30.7687H8.49295V40.13H6.26644V36.3639H2.22492V40.13H0.000854492V30.7687H2.22492V34.3362H6.26644V30.7687ZM16.6544 30.7687H19.2802L15.4395 36.8886V40.13H13.2154V36.8886L9.37229 30.7687H12.0005L14.3299 34.476L16.6569 30.7687H16.6544ZM26.4423 30.7687H28.6663V38.2176C28.6663 38.8036 28.4924 39.2719 28.1519 39.6151C27.809 39.9559 27.3387 40.13 26.7533 40.13H20.1791V30.7687H22.4032V38.1023H25.972C26.2487 38.1023 26.4447 37.8915 26.4447 37.6316V30.7687H26.4423ZM37.3078 30.7687C37.8908 30.7687 38.3611 30.9428 38.7064 31.2861C39.0469 31.6294 39.2208 32.0977 39.2208 32.6837V40.13H36.9968V33.2648C36.9968 33.0196 36.813 32.794 36.5265 32.794H32.9552V40.1276H30.7312V30.7663H37.3103L37.3078 30.7687ZM47.8599 30.7687H41.2832V40.13H47.8599C48.4453 40.13 48.9156 39.9559 49.256 39.6151C49.599 39.2719 49.7729 38.8011 49.7729 38.2176V32.6837C49.7729 32.0977 49.599 31.6269 49.256 31.2861C48.9131 30.9428 48.4428 30.7687 47.8599 30.7687ZM47.5464 33.2819V37.6193C47.5464 37.8718 47.3602 38.1023 47.0712 38.1023H43.5048V32.7964H47.0565C47.348 32.7964 47.5439 33 47.5439 33.2819M53.6454 30.7687C53.06 30.7687 52.5897 30.9428 52.2492 31.2861C51.9088 31.6294 51.7324 32.0977 51.7324 32.6837V40.13H53.9565V37.2344H57.998V40.13H60.222V30.7687H53.6454ZM57.998 32.7964V35.2091H53.9565V33.2746C53.9565 33.0441 54.1328 32.7989 54.4292 32.7989H57.998V32.7964ZM64.6138 30.7687V40.13H62.3898V30.7687H64.6138Z" fill="white"/>
<path d="M32.3632 25.7423C46.1607 25.7423 57.3423 20.0098 57.3423 12.9386C57.3423 5.86735 46.1607 0.129944 32.3632 0.129944C18.5657 0.129944 7.3841 5.86 7.3841 12.9386C7.3841 20.0172 18.5681 25.7423 32.3632 25.7423ZM37.0661 19.463C36.6497 20.4291 35.9344 22.4936 34.2835 23.3149C33.7888 23.5626 33.1715 23.6827 32.6155 23.6974C32.493 23.6999 32.4048 23.6974 32.3681 23.6974C27.7583 23.6974 23.4694 23.0575 19.8737 21.964C19.8467 21.9541 19.7659 21.9198 19.7414 21.9125C19.4083 21.7997 19.2368 21.6477 19.2368 21.4613C19.2368 21.2946 19.3225 21.1695 19.4426 21.0543C19.4916 21.0028 19.5699 20.9366 19.6679 20.8532C20.4958 20.1594 22.9967 18.3474 27.702 16.5477C29.3529 15.9176 31.4202 15.1281 33.5781 14.6696C34.8469 14.3999 39.5473 13.6864 37.0661 19.463ZM49.6879 6.55142C49.7736 6.39451 49.8936 6.26455 50.1043 6.2523C50.2243 6.24494 50.381 6.2719 50.626 6.42147C53.5555 8.22851 55.2995 10.4842 55.2995 12.9337C55.2995 17.352 49.6242 21.145 41.5166 22.8049C40.9949 22.9055 40.6544 22.9055 40.5295 22.7731C40.4536 22.6897 40.4291 22.5524 40.5295 22.3759C40.581 22.2851 40.6397 22.2042 40.7451 22.0792C45.1614 16.8665 48.5293 9.17494 49.4846 6.95844C49.5556 6.80397 49.6291 6.65196 49.6854 6.55387M27.7338 6.3896C28.1502 5.42355 28.8679 3.35662 30.5163 2.53769C31.016 2.29006 31.6308 2.1699 32.1844 2.15519C32.3093 2.15275 32.3975 2.15519 32.4342 2.15519C37.044 2.15519 41.3329 2.79514 44.9262 3.88867C44.9556 3.90093 45.0389 3.93281 45.0634 3.94016C45.3965 4.0505 45.5655 4.20498 45.5655 4.39376C45.5655 4.55804 45.4798 4.68308 45.3622 4.79833C45.3083 4.84981 45.2348 4.91601 45.1344 4.99938C44.3041 5.69571 41.8081 7.50276 37.1004 9.30488C35.4519 9.93748 33.3846 10.7245 31.2267 11.183C29.9579 11.4527 25.255 12.1711 27.7363 6.3896M23.2098 3.06484C23.729 2.96431 24.072 2.96431 24.1969 3.09917C24.2728 3.18253 24.2948 3.31984 24.1969 3.49392C24.143 3.58709 24.0866 3.668 23.9789 3.79305C19.5626 9.0033 16.1971 16.6949 15.2418 18.9138C15.1684 19.0683 15.0973 19.2203 15.041 19.3208C14.9553 19.4777 14.8352 19.6052 14.6221 19.6199C14.507 19.6273 14.3454 19.5979 14.1004 19.4508C11.1685 17.6437 9.42691 15.388 9.42691 12.941C9.42691 8.52273 15.1022 4.72722 23.2122 3.06729" fill="white"/>
</svg>

