<?xml version="1.0" encoding="utf-8"?>
<!-- Generator: Adobe Illustrator 27.8.1, SVG Export Plug-In . SVG Version: 6.00 Build 0)  -->
<svg version="1.1" id="Layer_1" xmlns="http://www.w3.org/2000/svg" xmlns:xlink="http://www.w3.org/1999/xlink" x="0px" y="0px"
	 viewBox="0 0 549 116.6" style="enable-background:new 0 0 549 116.6;" xml:space="preserve">
<style type="text/css">
	.st0{fill:#FFFFFF;}
	.st1{fill:#EC6D2D;}
</style>
<g>
	<g>
		<path class="st0" d="M171.1,1.2c8.8,0,15.6,2.2,20.3,6.7s7.1,11.3,7.1,20.5c0,4.8-0.5,9.1-1.6,12.8s-2.7,6.8-5,9.4
			c-2.2,2.5-5.1,4.5-8.6,5.8s-7.6,2-12.3,2h-19.6V1.2H171.1L171.1,1.2z M171.8,51.9c0.9,0,1.9-0.1,3.2-0.2c1.3-0.1,2.6-0.4,4.1-1
			s2.9-1.2,4.3-2.2c1.4-1,2.7-2.3,3.8-3.9c1.1-1.7,2-3.7,2.8-6.2c0.7-2.5,1.1-5.5,1.1-9s-0.3-6.5-1-9.2s-1.8-5-3.3-6.9
			s-3.5-3.3-5.9-4.3s-5.4-1.5-8.9-1.5h-12.8v44.4L171.8,51.9L171.8,51.9z"/>
		<path class="st0" d="M236.1,55.7c-3.1,2.3-7,3.5-11.7,3.5c-3.3,0-6.2-0.5-8.6-1.6c-2.4-1.1-4.5-2.6-6.1-4.5
			c-1.7-1.9-2.9-4.2-3.7-6.9s-1.3-5.6-1.4-8.7c0-3.1,0.5-6,1.4-8.6s2.3-4.9,4-6.8c1.7-1.9,3.8-3.4,6.2-4.5s5-1.6,7.8-1.6
			c3.7,0,6.7,0.8,9.2,2.3c2.4,1.5,4.4,3.5,5.9,5.8s2.5,4.9,3,7.7s0.8,5.4,0.7,7.9h-31c-0.1,1.8,0.2,3.5,0.6,5.2
			c0.5,1.6,1.3,3.1,2.3,4.3c1.1,1.3,2.4,2.3,4.1,3c1.7,0.7,3.6,1.1,5.9,1.1c2.9,0,5.2-0.7,7.1-2c1.8-1.3,3.1-3.4,3.6-6.1h6.7
			C241.2,49.9,239.2,53.3,236.1,55.7L236.1,55.7z M234.4,29.1c-0.6-1.4-1.4-2.7-2.5-3.7c-1-1-2.3-1.9-3.7-2.5s-3-0.9-4.7-0.9
			s-3.3,0.3-4.8,0.9s-2.6,1.5-3.6,2.5c-1,1.1-1.8,2.3-2.4,3.7c-0.6,1.4-0.9,2.9-1,4.5h23.8C235.4,32.1,235,30.5,234.4,29.1
			L234.4,29.1z"/>
		<path class="st0" d="M286.5,58.2c-1.2,0.7-2.8,1-4.9,1c-1.8,0-3.2-0.5-4.2-1.5s-1.6-2.6-1.6-4.9c-1.9,2.2-4,3.9-6.5,4.9
			s-5.2,1.5-8,1.5c-1.9,0-3.6-0.2-5.3-0.6s-3.1-1.1-4.4-2c-1.2-0.9-2.2-2.1-2.9-3.6s-1.1-3.2-1.1-5.3c0-2.3,0.4-4.3,1.2-5.8
			s1.9-2.7,3.2-3.6c1.3-0.9,2.8-1.6,4.5-2.1s3.4-0.9,5.2-1.2c1.9-0.4,3.6-0.7,5.3-0.8c1.7-0.2,3.2-0.4,4.4-0.8
			c1.3-0.3,2.3-0.8,3-1.5s1.1-1.6,1.1-2.9c0-1.5-0.3-2.7-0.8-3.6c-0.6-0.9-1.3-1.6-2.2-2.1s-1.9-0.8-3-1s-2.2-0.2-3.2-0.2
			c-2.9,0-5.3,0.6-7.2,1.6c-1.9,1.1-3,3.2-3.1,6.2h-6.8c0.1-2.6,0.6-4.7,1.6-6.5s2.2-3.2,3.8-4.3c1.6-1.1,3.4-1.9,5.5-2.4
			s4.3-0.7,6.6-0.7c1.9,0,3.7,0.1,5.6,0.4c1.8,0.3,3.5,0.8,5,1.6c1.5,0.8,2.7,2,3.6,3.5s1.4,3.4,1.4,5.8v21.3c0,1.6,0.1,2.8,0.3,3.5
			c0.2,0.7,0.8,1.1,1.9,1.1c0.6,0,1.3-0.1,2.1-0.3L286.5,58.2L286.5,58.2z M275.4,37c-0.9,0.6-2,1.1-3.4,1.4
			c-1.4,0.3-2.8,0.5-4.4,0.7c-1.5,0.2-3.1,0.4-4.6,0.6c-1.6,0.2-2.9,0.6-4.2,1.2c-1.2,0.5-2.2,1.3-3,2.3c-0.8,1-1.2,2.3-1.2,4
			c0,1.1,0.2,2.1,0.7,2.8c0.4,0.8,1,1.4,1.8,1.9c0.7,0.5,1.6,0.8,2.5,1c1,0.2,2,0.3,3,0.3c2.2,0,4.2-0.3,5.8-0.9s2.9-1.4,3.9-2.3
			c1-0.9,1.8-1.9,2.2-3c0.5-1.1,0.7-2.1,0.7-3.1L275.4,37L275.4,37z"/>
		<path class="st0" d="M300,1.2v57.2h-6.8V1.2H300z"/>
		<path class="st0" d="M339.9,55.7c-3.1,2.3-7,3.5-11.7,3.5c-3.3,0-6.2-0.5-8.6-1.6s-4.5-2.6-6.1-4.5c-1.7-1.9-2.9-4.2-3.7-6.9
			c-0.8-2.7-1.3-5.6-1.4-8.7c0-3.1,0.5-6,1.4-8.6c1-2.6,2.3-4.9,4-6.8c1.7-1.9,3.8-3.4,6.2-4.5c2.4-1.1,5-1.6,7.8-1.6
			c3.7,0,6.7,0.8,9.2,2.3c2.4,1.5,4.4,3.5,5.9,5.8s2.5,4.9,3,7.7c0.6,2.8,0.8,5.4,0.7,7.9h-31c-0.1,1.8,0.2,3.5,0.6,5.2
			c0.5,1.6,1.3,3.1,2.3,4.3c1.1,1.3,2.4,2.3,4.1,3s3.6,1.1,5.9,1.1c2.9,0,5.2-0.7,7.1-2c1.8-1.3,3.1-3.4,3.6-6.1h6.7
			C345,49.9,343,53.3,339.9,55.7L339.9,55.7z M338.2,29.1c-0.6-1.4-1.4-2.7-2.5-3.7c-1-1-2.3-1.9-3.7-2.5c-1.4-0.6-3-0.9-4.7-0.9
			s-3.3,0.3-4.8,0.9s-2.6,1.5-3.6,2.5c-1,1.1-1.8,2.3-2.4,3.7c-0.6,1.4-0.9,2.9-1,4.5h23.8C339.2,32.1,338.8,30.5,338.2,29.1
			L338.2,29.1z"/>
	</g>
	<g>
		<path class="st0" d="M359.7,16.9v8.7h0.2c1.7-3.4,3.7-5.9,6.1-7.4c2.4-1.6,5.4-2.3,9.1-2.2v7.2c-2.7,0-5,0.4-7,1.1
			c-1.9,0.7-3.5,1.8-4.6,3.3c-1.2,1.4-2,3.2-2.6,5.2c-0.5,2.1-0.8,4.4-0.8,7.1v18.4h-6.8V16.9H359.7L359.7,16.9z"/>
	</g>
	<g>
		<path class="st0" d="M383.3,49.4v8.9h-8.9v-8.9H383.3z"/>
		<path class="st0" d="M419.9,24.1c-1.7-1.4-4-2.2-6.9-2.2c-2.5,0-4.5,0.5-6.2,1.4s-3,2.1-4,3.6s-1.7,3.2-2.1,5.2s-0.6,4-0.6,6
			c0,1.9,0.2,3.8,0.7,5.6c0.4,1.8,1.2,3.4,2.1,4.9c1,1.4,2.2,2.6,3.8,3.4c1.6,0.9,3.4,1.3,5.5,1.3c3.4,0,6-0.9,7.9-2.6
			c1.9-1.8,3.1-4.2,3.5-7.4h7c-0.7,5.1-2.7,9.1-5.7,11.9c-3.1,2.8-7.3,4.2-12.5,4.2c-3.2,0-5.9-0.5-8.4-1.5s-4.5-2.5-6.1-4.3
			c-1.6-1.9-2.9-4.1-3.7-6.7c-0.8-2.6-1.2-5.4-1.2-8.5s0.4-6,1.2-8.7c0.8-2.7,2-5,3.6-7s3.7-3.6,6.1-4.7c2.5-1.1,5.3-1.7,8.6-1.7
			c2.3,0,4.6,0.3,6.6,0.8c2.1,0.6,3.9,1.4,5.4,2.6c1.6,1.2,2.9,2.7,3.9,4.4s1.7,3.9,1.9,6.4h-7C422.7,27.6,421.6,25.6,419.9,24.1
			L419.9,24.1z"/>
		<path class="st0" d="M437.2,29.1c0.9-2.6,2.1-4.9,3.8-6.9s3.8-3.5,6.3-4.6s5.4-1.7,8.6-1.7s6.2,0.6,8.7,1.7s4.6,2.7,6.3,4.6
			c1.7,2,3,4.2,3.8,6.9c0.9,2.6,1.3,5.5,1.3,8.5s-0.4,5.9-1.3,8.5s-2.1,4.9-3.8,6.9s-3.8,3.5-6.3,4.6s-5.4,1.6-8.7,1.6
			s-6.1-0.6-8.6-1.6c-2.5-1.1-4.6-2.6-6.3-4.6c-1.7-2-3-4.2-3.8-6.9c-0.9-2.6-1.3-5.4-1.3-8.5C435.9,34.6,436.3,31.8,437.2,29.1z
			 M444.1,44.4c0.7,2,1.6,3.6,2.8,4.9c1.2,1.3,2.6,2.3,4.1,3c1.6,0.7,3.2,1,5,1s3.4-0.3,5-1s3-1.7,4.1-3c1.2-1.3,2.1-2.9,2.8-4.9
			c0.7-2,1-4.2,1-6.7s-0.3-4.7-1-6.7s-1.6-3.6-2.8-4.9c-1.2-1.3-2.6-2.3-4.1-3c-1.6-0.7-3.2-1-5-1s-3.4,0.3-5,1s-3,1.7-4.1,3
			c-1.2,1.3-2.1,3-2.8,4.9c-0.7,2-1,4.2-1,6.7S443.4,42.4,444.1,44.4z"/>
		<path class="st0" d="M490.5,16.9V23h0.2c3.1-4.7,7.6-7,13.4-7c2.6,0,4.9,0.5,7,1.6s3.6,2.9,4.4,5.4c1.4-2.2,3.2-4,5.5-5.2
			s4.8-1.8,7.5-1.8c2.1,0,4,0.2,5.6,0.7c1.7,0.5,3.1,1.2,4.3,2.1c1.2,1,2.1,2.2,2.8,3.7s1,3.3,1,5.5v30.3h-6.8V31.2
			c0-1.3-0.1-2.5-0.3-3.6s-0.6-2.1-1.2-2.9c-0.6-0.8-1.4-1.5-2.4-2s-2.4-0.7-4-0.7c-3.4,0-6,1-7.9,2.9s-2.9,4.5-2.9,7.7v25.8h-6.8
			V31.2c0-1.3-0.1-2.6-0.4-3.7c-0.2-1.1-0.7-2.1-1.2-2.9c-0.6-0.8-1.4-1.5-2.4-1.9s-2.3-0.7-3.8-0.7c-2,0-3.7,0.4-5.1,1.2
			c-1.4,0.8-2.6,1.8-3.4,2.9c-0.9,1.1-1.5,2.3-1.9,3.5s-0.6,2.2-0.6,3v25.8h-6.8V16.9H490.5L490.5,16.9z"/>
	</g>
</g>
<g>
	<g>
		<path class="st0" d="M155.4,76.7V88h0.1c0.6-1.2,1.5-2.1,2.8-2.7s2.7-0.8,4.2-0.8c1.7,0,3.2,0.3,4.4,0.9s2.3,1.5,3.1,2.5
			s1.5,2.3,1.9,3.7c0.4,1.4,0.6,2.9,0.6,4.4s-0.2,3-0.6,4.4c-0.4,1.4-1,2.6-1.9,3.6c-0.8,1-1.9,1.8-3.1,2.4s-2.7,0.9-4.4,0.9
			c-0.5,0-1.1-0.1-1.8-0.2s-1.3-0.3-2-0.6c-0.6-0.3-1.3-0.6-1.9-1s-1.1-1-1.5-1.6h-0.1v2.9h-3.6V76.7H155.4L155.4,76.7z M168.4,92.8
			c-0.3-1-0.7-1.8-1.2-2.6c-0.6-0.8-1.3-1.4-2.1-1.8c-0.9-0.4-1.9-0.7-3-0.7c-1.2,0-2.2,0.2-3.1,0.7s-1.6,1.1-2.1,1.9
			S156,92,155.7,93c-0.2,1-0.4,2-0.4,3c0,1.1,0.1,2.1,0.4,3.1c0.3,1,0.7,1.9,1.2,2.7c0.6,0.8,1.3,1.4,2.1,1.8
			c0.9,0.5,1.9,0.7,3.2,0.7s2.3-0.2,3.1-0.7s1.5-1.1,2-1.9s0.9-1.7,1.1-2.7c0.2-1,0.3-2.1,0.3-3.2C168.8,94.8,168.7,93.8,168.4,92.8
			L168.4,92.8z"/>
		<path class="st0" d="M185.5,110c-0.4,1.1-0.8,2-1.2,2.7s-0.9,1.3-1.4,1.8s-1.1,0.8-1.7,1s-1.3,0.3-2.1,0.3c-0.4,0-0.9,0-1.3-0.1
			c-0.4-0.1-0.8-0.2-1.2-0.3v-3.3c0.3,0.1,0.7,0.3,1.1,0.4s0.8,0.2,1,0.2c0.7,0,1.4-0.2,1.9-0.5s0.9-0.9,1.1-1.5l1.5-3.7l-8.7-22
			h4.1l6.4,18h0.1l6.2-18h3.8L185.5,110L185.5,110z"/>
		<path class="st0" d="M228.9,81c-1.6-1.1-3.4-1.6-5.5-1.6c-1.8,0-3.4,0.3-4.7,1s-2.4,1.6-3.2,2.7s-1.4,2.5-1.9,3.9
			c-0.4,1.5-0.6,3-0.6,4.6c0,1.7,0.2,3.4,0.6,4.9c0.4,1.6,1,2.9,1.9,4c0.8,1.2,1.9,2.1,3.2,2.7s2.9,1,4.7,1c1.3,0,2.5-0.2,3.6-0.7
			s1.9-1.1,2.7-1.8s1.3-1.7,1.8-2.8c0.4-1.1,0.7-2.2,0.8-3.5h4c-0.4,3.8-1.7,6.8-4,8.9s-5.3,3.2-9.2,3.2c-2.4,0-4.4-0.4-6.2-1.2
			s-3.2-1.9-4.4-3.3s-2-3.1-2.6-5s-0.9-4-0.9-6.2s0.3-4.3,0.9-6.2c0.6-1.9,1.5-3.6,2.7-5.1c1.2-1.4,2.7-2.6,4.5-3.4s3.9-1.2,6.2-1.2
			c1.6,0,3.1,0.2,4.5,0.6s2.7,1.1,3.8,1.9s2,1.8,2.8,3.1c0.7,1.2,1.2,2.7,1.4,4.3h-4C231.4,83.6,230.4,82,228.9,81L228.9,81z"/>
		<path class="st0" d="M240.1,91.5c0.4-1.4,1.1-2.6,2-3.7c0.9-1,2-1.8,3.4-2.4c1.3-0.6,2.9-0.9,4.6-0.9s3.3,0.3,4.6,0.9
			c1.3,0.6,2.4,1.4,3.3,2.4s1.6,2.2,2,3.7c0.5,1.4,0.7,2.9,0.7,4.5s-0.2,3.1-0.7,4.5s-1.1,2.6-2,3.6s-2,1.8-3.3,2.4
			s-2.9,0.9-4.6,0.9s-3.3-0.3-4.6-0.9s-2.4-1.4-3.4-2.4c-0.9-1-1.6-2.2-2-3.6s-0.7-2.9-0.7-4.5S239.7,92.9,240.1,91.5L240.1,91.5z
			 M243.8,99.6c0.4,1,0.8,1.9,1.5,2.6c0.6,0.7,1.4,1.2,2.2,1.6s1.7,0.6,2.7,0.6s1.8-0.2,2.7-0.6s1.6-0.9,2.2-1.6
			c0.6-0.7,1.1-1.6,1.5-2.6s0.5-2.2,0.5-3.6s-0.2-2.5-0.5-3.6c-0.4-1-0.8-1.9-1.5-2.6c-0.6-0.7-1.4-1.2-2.2-1.6s-1.7-0.6-2.7-0.6
			s-1.8,0.2-2.7,0.6s-1.6,0.9-2.2,1.6s-1.1,1.6-1.5,2.6s-0.5,2.2-0.5,3.6S243.5,98.6,243.8,99.6z"/>
		<path class="st0" d="M263.3,85h4.6l5.3,7.7l5.5-7.7h4.3l-7.6,10.1L284,107h-4.6l-6.1-9.1l-6.1,9.1h-4.4l8.2-11.6L263.3,85
			L263.3,85z"/>
		<path class="st0" d="M312.2,76.7l11.9,30.4h-4.5l-3.3-9.1h-12.8l-3.4,9.1H296l11.8-30.4H312.2z M315,94.5l-5-14.2h-0.1l-5.1,14.2
			H315L315,94.5z"/>
		<path class="st0" d="M341.3,107v-3.5h-0.1c-0.8,1.4-1.7,2.4-2.9,3s-2.6,1-4.2,1c-1.5,0-2.6-0.2-3.6-0.6s-1.7-0.9-2.3-1.6
			s-1-1.6-1.2-2.5c-0.2-1-0.4-2.1-0.4-3.2V85.1h3.6V100c0,1.4,0.4,2.4,1.2,3.2s1.9,1.2,3.3,1.2c1.1,0,2.1-0.2,2.9-0.5s1.5-0.8,2-1.4
			s0.9-1.3,1.2-2.2c0.3-0.8,0.4-1.8,0.4-2.7V85.1h3.6v22L341.3,107L341.3,107z"/>
		<path class="st0" d="M359.5,85v3.2h-4.4v13.7c0,0.4,0,0.8,0.1,1s0.2,0.4,0.4,0.6c0.2,0.1,0.5,0.2,0.8,0.3c0.4,0,0.8,0.1,1.4,0.1
			h1.7v3.2h-2.8c-0.9,0-1.7-0.1-2.4-0.2c-0.7-0.1-1.2-0.4-1.6-0.7s-0.7-0.8-0.9-1.4c-0.2-0.6-0.3-1.4-0.3-2.5v-14h-3.7V85h3.7v-6.6
			h3.6V85H359.5L359.5,85z"/>
		<path class="st0" d="M363,91.5c0.5-1.4,1.1-2.6,2-3.7c0.9-1,2-1.8,3.4-2.4c1.3-0.6,2.9-0.9,4.6-0.9s3.3,0.3,4.6,0.9
			c1.3,0.6,2.4,1.4,3.3,2.4s1.6,2.2,2,3.7c0.5,1.4,0.7,2.9,0.7,4.5s-0.2,3.1-0.7,4.5s-1.1,2.6-2,3.6s-2,1.8-3.3,2.4
			s-2.9,0.9-4.6,0.9s-3.3-0.3-4.6-0.9s-2.5-1.4-3.4-2.4s-1.6-2.2-2-3.6s-0.7-2.9-0.7-4.5S362.6,92.9,363,91.5z M366.7,99.6
			c0.4,1,0.8,1.9,1.5,2.6c0.6,0.7,1.4,1.2,2.2,1.6c0.8,0.4,1.7,0.6,2.7,0.6s1.8-0.2,2.7-0.6s1.6-0.9,2.2-1.6s1.1-1.6,1.5-2.6
			s0.5-2.2,0.5-3.6s-0.2-2.5-0.5-3.6c-0.4-1-0.8-1.9-1.5-2.6c-0.6-0.7-1.4-1.2-2.2-1.6s-1.7-0.6-2.7-0.6s-1.8,0.2-2.7,0.6
			s-1.6,0.9-2.2,1.6s-1.1,1.6-1.5,2.6s-0.5,2.2-0.5,3.6S366.3,98.6,366.7,99.6z"/>
		<path class="st0" d="M391.3,85v3.2h0.1c1.6-2.5,4-3.7,7.1-3.7c1.4,0,2.6,0.3,3.7,0.8c1.1,0.6,1.9,1.5,2.3,2.9
			c0.7-1.2,1.7-2.1,2.9-2.8s2.5-1,4-1c1.1,0,2.1,0.1,3,0.4c0.9,0.2,1.7,0.6,2.3,1.1c0.6,0.5,1.1,1.2,1.5,2s0.5,1.8,0.5,2.9V107h-3.6
			V92.6c0-0.7-0.1-1.3-0.2-1.9s-0.3-1.1-0.6-1.6s-0.7-0.8-1.3-1s-1.3-0.4-2.1-0.4c-1.8,0-3.2,0.5-4.2,1.5s-1.5,2.4-1.5,4.1V107h-3.6
			V92.6c0-0.7-0.1-1.4-0.2-2s-0.4-1.1-0.7-1.6s-0.7-0.8-1.2-1s-1.2-0.4-2-0.4c-1,0-2,0.2-2.7,0.6s-1.4,0.9-1.8,1.5s-0.8,1.2-1,1.8
			s-0.3,1.2-0.3,1.6V107h-3.6V85H391.3L391.3,85z"/>
		<path class="st0" d="M423.7,91.5c0.5-1.4,1.1-2.6,2-3.7c0.9-1,2-1.8,3.4-2.4c1.3-0.6,2.9-0.9,4.6-0.9s3.3,0.3,4.6,0.9
			c1.3,0.6,2.4,1.4,3.3,2.4s1.6,2.2,2,3.7c0.5,1.4,0.7,2.9,0.7,4.5s-0.2,3.1-0.7,4.5s-1.1,2.6-2,3.6s-2,1.8-3.3,2.4
			s-2.9,0.9-4.6,0.9s-3.3-0.3-4.6-0.9s-2.5-1.4-3.4-2.4s-1.6-2.2-2-3.6S423,97.6,423,96S423.2,92.9,423.7,91.5z M427.4,99.6
			c0.4,1,0.8,1.9,1.5,2.6c0.6,0.7,1.4,1.2,2.2,1.6c0.8,0.4,1.7,0.6,2.7,0.6s1.8-0.2,2.7-0.6s1.6-0.9,2.2-1.6s1.1-1.6,1.5-2.6
			s0.5-2.2,0.5-3.6s-0.2-2.5-0.5-3.6c-0.4-1-0.8-1.9-1.5-2.6c-0.6-0.7-1.4-1.2-2.2-1.6s-1.7-0.6-2.7-0.6s-1.8,0.2-2.7,0.6
			s-1.6,0.9-2.2,1.6s-1.1,1.6-1.5,2.6s-0.5,2.2-0.5,3.6S427,98.6,427.4,99.6z"/>
		<path class="st0" d="M458,85v3.2h-4.4v13.7c0,0.4,0,0.8,0.1,1s0.2,0.4,0.4,0.6c0.2,0.1,0.5,0.2,0.8,0.3c0.4,0,0.8,0.1,1.4,0.1h1.7
			v3.2h-2.8c-0.9,0-1.7-0.1-2.4-0.2c-0.7-0.1-1.2-0.4-1.6-0.7s-0.7-0.8-0.9-1.4c-0.2-0.6-0.3-1.4-0.3-2.5v-14h-3.7V85h3.7v-6.6h3.6
			V85H458L458,85z"/>
		<path class="st0" d="M462.2,81.1v-4.4h3.6v4.4H462.2z M465.8,85.1v22h-3.6v-22H465.8z"/>
		<path class="st0" d="M477.5,107l-8.2-22h4l6.2,18.3h0.1l6-18.3h3.8l-8,22H477.5z"/>
		<path class="st0" d="M508.3,105.6c-1.6,1.2-3.7,1.9-6.2,1.9c-1.8,0-3.3-0.3-4.6-0.8s-2.4-1.4-3.2-2.4c-0.9-1-1.5-2.2-2-3.7
			c-0.4-1.4-0.7-3-0.7-4.6c0-1.7,0.2-3.2,0.8-4.6c0.5-1.4,1.2-2.6,2.1-3.6s2-1.8,3.3-2.4s2.6-0.8,4.1-0.8c2,0,3.6,0.4,4.9,1.2
			s2.3,1.8,3.1,3.1c0.8,1.2,1.3,2.6,1.6,4.1s0.4,2.9,0.4,4.2h-16.5c0,1,0.1,1.9,0.3,2.7c0.2,0.9,0.7,1.6,1.2,2.3
			c0.6,0.7,1.3,1.2,2.2,1.6s1.9,0.6,3.1,0.6c1.5,0,2.8-0.3,3.8-1.1c1-0.7,1.6-1.8,1.9-3.2h3.6C511,102.5,509.9,104.4,508.3,105.6z
			 M507.4,91.5c-0.3-0.8-0.8-1.4-1.3-2s-1.2-1-2-1.3s-1.6-0.5-2.5-0.5s-1.8,0.2-2.5,0.5c-0.8,0.3-1.4,0.8-1.9,1.3s-1,1.2-1.3,2
			s-0.5,1.6-0.5,2.4H508C507.9,93.1,507.7,92.3,507.4,91.5L507.4,91.5z"/>
	</g>
</g>
<path class="st1" d="M85.6,8c0,0.2,0.4,0.1,0.3,0.3c0.1,0,0.3-0.1,0.2,0.1c0.6,0.2,1.2,0.7,1.7,1c0.1,0,0.2-0.1,0.1,0.1
	c0.1,0,0.3,0.1,0.3,0.2c0.2,0,0.4,0.1,0.4,0.3c0.9,0.3,1.5,0.9,2.3,1.3c0,0-0.1,0-0.1,0.1c0.1-0.1,0.2-0.1,0.1,0.1
	c0.4,0.2,0.7,0.3,1,0.5l-0.1,0.1l0.1,0.1c0.1,0.1,0.5,0.4,0.5,0.3c0.1,0.1,0.2,0.1,0.1,0.2c0.1,0,0.2,0,0.1,0.1
	c0.3,0.1,0.6,0.3,0.6,0.4c0.2,0,0.5,0.4,0.6,0.4c0.1,0.1,0.5,0.4,0.6,0.4c0.2,0.2,0.6,0.6,0.8,0.8c0.1,0.1,0.1,0.1,0.1,0.1
	c0.3,0.5,1,1,1.4,1.6c-0.3,0.1-0.4,0.3-0.7,0.4c-0.8-0.6-1.4-1.2-2.2-1.8c0.1,0.4,0.5,0.8,0.6,1.3c-0.9-0.4-1.9-0.6-3.1-0.9
	c-0.1-0.3-0.5-0.8-0.8-1c-0.2-0.2-0.9-0.8-0.8-1.1c0.1-0.5,0.7-0.4,0.7-0.9c0-0.2-0.3-0.5-0.3-0.5c-0.3-0.2-0.4-0.4-0.7-0.6
	c-0.2-0.1-0.1-0.2-0.2-0.1c0-0.3-0.5-0.2-0.5-0.5c-0.1,0-0.1,0.1-0.1,0.1c-0.1-0.1,0-0.1,0-0.1c-0.1,0.1-0.1,0.1-0.2-0.1
	c-0.2-0.1-0.7-0.4-1-0.6c0.2,0.1-0.1,0.1,0-0.1c-0.2,0.1-0.4-0.2-0.6-0.2c0,0.1,0,0.1-0.1-0.1c-0.1,0.1-0.6-0.2-0.8-0.4
	c-0.1,0.2-0.2-0.1-0.4-0.1l0,0C85.4,9.1,85.3,9,85.2,9l0,0c-0.2-0.1-0.4-0.5-0.6-0.7C85,8.1,85.3,8.1,85.6,8"/>
<path class="st1" d="M82.6,7.2C82.6,7.2,82.5,7.3,82.6,7.2c0.4,0.2,0.7,0.7,1,0.9C83.4,8.1,83.2,8,83,8c0,0-0.1,0-0.1-0.1
	c0,0,0,0.1,0.1,0.1c-0.7-0.1-1-0.7-1.5-1C81.7,7,82.3,7.1,82.6,7.2"/>
<path class="st1" d="M80.4,5.9c-0.1,0-0.2,0-0.2,0H80.4c-0.2,0.1-0.2,0-0.3,0l0,0c-0.2-0.1-0.5-0.2-0.7-0.2l0,0
	c-0.1-0.1-0.3-0.2-0.4-0.1c0-0.1,0-0.2-0.1-0.2C79.2,5.4,80.2,5.6,80.4,5.9"/>
<path class="st1" d="M64.9,3.5c1.4-0.1,2.9,0,4.3,0.4h0.1c0.9,0.4,1.9,0.7,2.9,0.9c1.6,0.3,2.9,0.4,3.9,1c-0.1,0.1-0.3,0.1-0.5,0.1
	C75.7,6,75.7,6,75.6,6l0,0l0,0h-0.1c0,0,0,0,0.1,0c-0.7,0.1-1.4-0.1-2.2,0c0.3-0.2-0.2,0-0.5,0c-0.3-0.1-1.1-0.1-1.5-0.2
	c-0.3,0-0.5-0.2-0.9-0.1c0-0.1,0.1,0,0.1-0.1c-0.3,0.1-0.5-0.1-0.7,0s-0.2,0,0.1-0.1c-0.3-0.1-0.8-0.1-0.8-0.1
	c-0.7-0.2-1.7-0.2-2-0.8c0.5,0,0.9,0,1.2-0.3c-0.1-0.2-0.3-0.2-0.5-0.2c0,0,0,0,0.1,0c-0.6-0.1-1,0-1.4,0C67.1,4,65.9,4,65.7,4h-1.1
	C64.7,3.8,64.8,3.7,64.9,3.5"/>
<path class="st0" d="M116.9,54.8C114.9,23.1,87.7-0.9,56,1.1C24.4,3.1,0.4,30.3,2.3,62c2,31.6,29.2,55.7,60.8,53.7
	C94.8,113.7,118.8,86.4,116.9,54.8z M98.6,87.3L98.6,87.3c-1.4,1.2-2.8,2.4-4.2,3.5c-0.3,1-0.6,2.1-0.9,2.9
	c-0.1,0.2-0.2,0.6-0.3,0.8c-0.2,0.4-0.6,0.8-0.9,1.1c-0.7,0.7-1.3,1.2-2,1.9c-0.3,0.3-0.7,0.8-1.1,1s-1,0.2-1.5,0.3
	c-0.5,0.1-1,0.2-1.4,0.3c-0.7,1.9-1.3,3.8-2,5.5c-0.8,0.3-1.6,0.2-2.3,0.5c-0.5,0.1-1,0.6-1.5,0.8c-0.4,0.3-1,0.6-1.5,0.8
	c-0.5,0.2-1.1,0.2-1.6,0.3c-0.6,0.1-1.1,0.2-1.7,0.2c-0.2,0.4-0.2,0.9-0.3,1.4c-1.3,0.2-2.7,0.4-4.1,0.4c-0.1,0.8,0,1.8,0,2.7
	c-0.3,0.1-0.7,0.2-1,0.2c0.1,0.4,0.5,0.7,0.3,1.3c-0.5,0.1-0.7,0.4-1.2,0.5c-0.2,0.2-0.2,0.5-0.5,0.6c0.2,0.1-0.4-0.1-0.5,0.1h0.1
	c0.1,0.1-0.3,0-0.5,0s-0.5,0.1-0.8,0.1c0,0.1,0.1,0.1,0.1,0.1c-1,0.1-1.6-0.4-2.4-0.7c0.1-0.3,0.1-0.5,0.1-0.8
	c-0.6-0.2-1.4-0.4-2.1-0.6c0.1-0.3,0.2-0.6,0.2-0.9s0.3-0.7,0.2-0.9c-0.1-0.2-0.6-0.6-0.8-0.7c-0.3-0.2-0.6-0.4-0.8-0.6
	c0.1-2.2,0-4.5,0.1-6.9c0-0.8,0.2-1.8,0-2.5c-0.1-0.5-0.6-1-0.8-1.3c-0.3-0.5-0.6-0.9-0.8-1.3c0.7-1.1,1.5-2.1,2.3-3.2
	c0.2-0.3,0.7-0.7,0.7-1c0.2-0.7-0.1-1.3,0-2.2c-3.6-2.3-7.5-4.4-11-6.8c0.2-1.6,0.4-3.2,0.6-4.7c-1.1-0.5-2.4-0.8-3.6-1.3
	c-0.7-1-1.3-2-1.9-3.1c-0.1-1,0.3-1.7,0.5-2.5c0.5-1.7,1-3.4,1.5-5.1c1.9-1.8,3.9-3.3,5.9-5.1c-0.6-1.5-0.9-2.9-1.6-4.3
	c-0.2-0.4-0.7-0.9-1-1.3c-1-1.3-2.1-2.8-3.1-4c-0.5-0.2-1.2-0.2-1.8-0.4c-0.2-0.1-0.5-0.5-0.7-0.7s-0.5-0.5-0.7-0.7
	c-0.5-0.5-0.9-1.1-1.4-1.4c-0.5-0.3-1.1-0.5-1.6-0.8c-1.3-0.7-2.6-1.4-4-2.1c-0.2-0.2-0.5-0.3-0.7-0.4c-0.9-0.2-2,0-3,0h-2.9
	c-0.5-1.4-1.1-3-1.6-4.6c-0.2-0.5-0.5-1.1-0.5-1.5s0.1-0.9,0.2-1.3c0.2-1.2,0.5-2.5,0.8-3.8c-0.1-0.6-0.7-1.1-0.8-1.8
	c0-0.4,0-1,0.1-1.5c0.1-1.4,0.3-3.2,0.2-4.6c-0.4,0-0.2,0.2-0.4,0.4c-0.1,0-0.2,0-0.4,0.1c-0.6,1.4-1.1,2.9-1.6,4.4s-1,3-1.4,4.6
	c-0.1,0.1-0.4,0-0.5,0.1c-0.1-0.6-0.2-1.1-0.4-1.7c-0.1-0.3-0.4-0.7-0.4-1s0.5-1.2,0.6-1.5c0.3-0.5,0.5-1,0.7-1.4
	c0.5-1.4,0.7-2.9,1.1-4.3c-0.4-0.3-1-0.5-1.5-0.7c0.7-1.4,0.9-3.5,1.9-4.7c0.2-0.2,0.6-0.5,1-0.7c2.2-1.6,4.3-3.5,6.4-5.3
	c2.5-2.1,4.9-4,6.6-6.7c-0.7,0-1.3,0.4-2.2,0.3c-0.7-0.1-1.1-0.5-1.7-0.4c-0.1,0-0.6,0.1-0.9,0.1c-0.1,0-0.1,0,0,0
	c-0.4,0.1-1.1,0.3-1.5,0.6c0-0.1,0-0.1,0-0.1l-0.1,0.1c0,0,0,0-0.1,0.1c0,0,0,0,0.1-0.1c0,0,0,0,0-0.1c-0.5,0.4-1.3,0.6-1.8,0.9
	h-0.1c-0.3,0.2-0.7,0.3-0.8,0.4c0.2-0.1,0,0.1-0.1,0c-0.2,0.1-0.3,0.2-0.5,0.3c0-0.1,0.1-0.1,0-0.1c-0.6,0.4-0.8,0.3-1.3,0.7
	c-0.1-0.2-0.1,0-0.3,0.1c-0.3,0-0.5,0.4-0.5,0.2c-0.3,0.2-0.6,0.3-0.7,0.5c-0.3,0-0.2,0.2-0.4,0.1c-0.4,0.4-1.5,1.1-2.6,1.9
	c0.8-0.8,1.9-1.4,2.7-2.1c0.9-1,2.4-1.6,3.6-2.4c0.1-0.1,0.3-0.2,0.4-0.3c0.2-0.2,0.7-0.3,1.1-0.6c2.3-1.2,4.9-2.3,7.5-3.1
	c0.9-0.1,1.9-0.7,2.7-0.3c1.5-0.1,3.2-0.9,4.9-1.1c0.4-0.1,0.9-0.1,1.4,0.1c0.6,0.2,1,0.4,1.4,0.4c0.6,0.1,1.1,0,1.8-0.1
	c0.5-0.1,1-0.3,1.4-0.5c0.7-0.2,1.5-0.2,2.3-0.2C59.2,4,60.1,4,60.7,4.2c0.7,0.2,1.1,1,1.7,1.1c1,0.2,2.4-0.2,3.3,0.1
	c0.3,0.1,0.4,0.2,0.7,0.3c0.9,0.4,2.1,0.5,3.3,0.6c2.3,0.2,4.7,0.5,6.7,1c0.6,0.1,1,0.3,1.3,0.6c0.4,0.3,0.7,0.8,1.1,0.9
	c0.6,0.1,1.3-0.2,1.8-0.4c0-0.8-0.8-0.9-1-1.7c0.5-0.1,0.9,0.3,1.2,0.6c1.1,0.8,2.1,1.6,2.9,2.5c1.3,0.3,2.5,0.8,3.7,1.2
	c-0.3,0.1-0.2,0.2-0.3,0.4c-1.2,0-1.9-0.5-2.8-0.7c-0.6-0.2-1.3-0.5-2-0.7c-0.9-0.2-2-0.6-2.8-0.6c-0.2,0,0,0.5-0.2,0.6
	c-0.9,0.2-1.6-0.4-2.3-0.3c-0.2,0.3-0.3,0.8-0.6,1.1c-0.6,0.5-1.6,0.4-2.4,0.8c-0.6,0.4-1.2,0.8-1.3,1.9c0,2,2.1,3.3,3.6,3.8
	c0.6,0.2,1.4,0.5,1.9,0.5c0.6,0,1.3-0.2,1.8-0.3c2.2-0.5,3.4-1.6,3.7-3.9c0.9,0.2,1.8,0.5,2.7,0.7c0-0.1-0.2-0.4-0.1-0.7
	c0.4-0.2,0.6-0.1,0.9,0.1c0.9,0.4,1.6,1.4,2.4,2.1c0.9,0.9,1.9,1.3,3.4,1.8c0.4,0.1,0.9,0.3,1.2,0.4c0.2,0.2,0.6,0.6,1,0.9
	c-0.1,0.1-0.2-0.1-0.4-0.1c-0.3,0.2-0.4,0.4-0.3,0.9c0.1,1,1,1.8,1.5,2.5c0.6,0.2,1.2,0.4,1.8,0.5c0.1,0.3,0.1,0.6,0.2,0.8
	c-1.2,0.2-0.6,2-1.3,2.5c-0.5,0.4-1.9,0.4-2.5,0c-0.4-0.2-1-1-1.3-1.4c-1.2-1.2-3.2-2.8-5.3-2.8c-1.1,0-2,0.4-3.1,0.9
	c0,0.4,0.4,0.4,0.7,0.4c2.2,0.3,4.6,1,5.3,2.8c0.1,0.2,0.1,0.5,0.1,0.7c-1.2-0.2-2.4-0.3-3.6-0.4s-2.4-0.4-3.6-0.4
	c-1.9,0-3.4,1.3-5,1.7c-0.6,0.2-1.2,0.2-1.8,0.4c-1.3,0.3-2.1,0.8-3,1.5c-0.4,0.4-0.8,0.8-1,1.2c-0.3,0.4-0.4,1.1-0.7,1.5
	c-0.6,0.6-2.1,0.4-3.2,0.5c-0.6,0.1-1.1,0.6-1.6,0.6c-0.4,0-0.7-0.6-1.1-0.6c-0.3,0-0.6,0.3-0.8,0.5c-1.3,0.9-2.8,1.1-2.7,3.5
	c0,0.7,0.3,1.3,0.3,1.9c0,1.2-1.5,1.4-1.8,2.2c-1.5-0.1-1.3-2-1.4-3.6c-0.1-1.3-0.1-3-1-3.5c-0.4-0.2-1.2-0.3-1.8-0.5
	c-2.1-0.5-4.4-0.9-7-0.8c-2.4,0.1-4.4,0.5-6.7,0.7c-0.3,0.8-0.5,1.5-1,2.2c-0.8,1-2.3,1.1-3.1,2.1c-0.1,2.8,1,5.7,2.5,7.5
	c2.5,0,4.2-0.7,5.2-2.1c0.6,0.1,1.2,0,1.8,0c-0.3,0.9-0.8,1.6-1.3,2.4c-0.2,0.3-0.7,0.8-0.7,1.1c-0.1,0.5,0.2,1.2,0.4,1.7
	c0.1,0.6,0.2,1.2,0.3,1.8c1.6,0,3.1-0.1,4.8,0c0.2,1.7,0.1,3.5,0.2,5.1c2.9,0.7,5.7,1.3,8.6,2c0.2-0.3,0.2-0.9,0.3-1.3
	c0.7,0.1,1.7,0,2.4,0.2c0.3,0.1,0.8,0.6,1.2,1s0.8,0.9,1.2,1c0.4,0.2,1.1,0.2,1.7,0.2c1.8,0.2,3.4,0.5,5.2,0.7
	c0.4,0.6,0.8,1.2,1.2,1.8c0.5,0.1,1,0.3,1.5,0.5s1.1,0.2,1.5,0.4c0.6,0.3,1,1.3,1.6,1.7c-0.4,0.9-0.9,1.8-1.4,2.7
	c0.6,0.6,1.4,1.2,2.2,1.7c0.3,0.2,0.6,0.5,0.7,0.6c0.2,0.1,0.8,0,1.1-0.1c0.8-0.1,1.5-0.1,2.3-0.1c0.5,1.2,1,2.7,1.5,4
	c0.2,0.5,0.5,1,0.5,1.4c0,0.5-0.3,1-0.5,1.5c-0.2,0.6-0.3,1-0.5,1.5c0.8-0.3,1.8-0.8,2.8-1.3c0.2-0.1,0.7-0.3,0.9-0.4
	c0.3,0,0.8,0.4,1,0.5c0.4,0.2,0.6,0.4,1,0.6c0.3,0.5,0.3,1.3,0.6,1.8c0.2,0.3,0.7,0.7,1.1,0.9c0.3,0.2,0.8,0.8,1.1,0.9
	c0.7,0.2,1.6-0.1,2.4,0.1c0.7,0.8,1.3,1.8,1.9,2.8c0.8,0.2,1.6,0.4,2.4,0.6C99.3,84.1,98.9,85.7,98.6,87.3L98.6,87.3z M70.8,49.3
	L70.8,49.3c-0.1,1.2-0.7,1.2-1.8,1c-1-0.2-2.2-0.4-3.2-0.6V49c0.1-0.1,0.4,0,0.6,0c0.2-0.5,0.2-1,0.3-1.5c0.1-0.5,0.2-1,0.4-1.5
	C69.2,45.6,70.9,47.4,70.8,49.3z M64.2,45.6c-0.5,0.1-0.8,0.3-1.2,0.6c-0.2,0.1-0.5,0.4-0.8,0.4c-0.4,0-0.9-0.7-1.1-1
	c-0.3-0.5-0.6-0.9-0.9-1.2c-0.1-0.1-0.6-0.5-0.6-0.6C59.5,43.5,60,43.3,60,43c0.8,0.5,1.9,0.5,2.7,1c0.3,0.2,0.6,0.5,0.9,0.7
	C63.8,45,64.1,45.2,64.2,45.6z M58.2,44L58.2,44c-1.3,0.3-2.9,0.2-3.4-0.6c-0.5-0.7-0.4-1.8-1.3-2c1-0.3,2.2-0.2,3.2,0.1
	c0.3,0.1,1,0.2,1.2,0.4C58.2,42.2,58,43.5,58.2,44z"/>
</svg>
