<svg width="65" height="41" viewBox="0 0 65 41" fill="none" xmlns="http://www.w3.org/2000/svg">
<path d="M6.26644 30.7686H8.49295V40.1299H6.26644V36.3638H2.22492V40.1299H0.000854492V30.7686H2.22492V34.3361H6.26644V30.7686ZM16.6544 30.7686H19.2802L15.4395 36.8885V40.1299H13.2154V36.8885L9.37229 30.7686H12.0005L14.3299 34.4759L16.6569 30.7686H16.6544ZM26.4423 30.7686H28.6663V38.2175C28.6663 38.8035 28.4924 39.2718 28.1519 39.615C27.809 39.9558 27.3387 40.1299 26.7533 40.1299H20.1791V30.7686H22.4032V38.1022H25.972C26.2487 38.1022 26.4447 37.8914 26.4447 37.6315V30.7686H26.4423ZM37.3078 30.7686C37.8908 30.7686 38.3611 30.9427 38.7064 31.286C39.0469 31.6293 39.2208 32.0976 39.2208 32.6836V40.1299H36.9968V33.2647C36.9968 33.0195 36.813 32.7939 36.5265 32.7939H32.9552V40.1275H30.7312V30.7662H37.3103L37.3078 30.7686ZM47.8599 30.7686H41.2832V40.1299H47.8599C48.4453 40.1299 48.9156 39.9558 49.256 39.615C49.599 39.2718 49.7729 38.801 49.7729 38.2175V32.6836C49.7729 32.0976 49.599 31.6268 49.256 31.286C48.9131 30.9427 48.4428 30.7686 47.8599 30.7686ZM47.5464 33.2818V37.6192C47.5464 37.8717 47.3602 38.1022 47.0712 38.1022H43.5048V32.7963H47.0565C47.348 32.7963 47.5439 32.9999 47.5439 33.2818M53.6454 30.7686C53.06 30.7686 52.5897 30.9427 52.2492 31.286C51.9088 31.6293 51.7324 32.0976 51.7324 32.6836V40.1299H53.9565V37.2343H57.998V40.1299H60.222V30.7686H53.6454ZM57.998 32.7963V35.209H53.9565V33.2745C53.9565 33.044 54.1328 32.7988 54.4292 32.7988H57.998V32.7963ZM64.6138 30.7686V40.1299H62.3898V30.7686H64.6138Z" fill="#002C5E"/>
<path d="M32.3632 25.7422C46.1607 25.7422 57.3423 20.0097 57.3423 12.9385C57.3423 5.86728 46.1607 0.129883 32.3632 0.129883C18.5657 0.129883 7.3841 5.85993 7.3841 12.9385C7.3841 20.0171 18.5681 25.7422 32.3632 25.7422ZM37.0661 19.4629C36.6497 20.429 35.9344 22.4935 34.2835 23.3148C33.7888 23.5625 33.1715 23.6826 32.6155 23.6973C32.493 23.6998 32.4048 23.6973 32.3681 23.6973C27.7583 23.6973 23.4694 23.0574 19.8737 21.9639C19.8467 21.954 19.7659 21.9197 19.7414 21.9124C19.4083 21.7996 19.2368 21.6476 19.2368 21.4612C19.2368 21.2945 19.3225 21.1694 19.4426 21.0542C19.4916 21.0027 19.5699 20.9365 19.6679 20.8531C20.4958 20.1593 22.9967 18.3473 27.702 16.5476C29.3529 15.9175 31.4202 15.128 33.5781 14.6695C34.8469 14.3998 39.5473 13.6863 37.0661 19.4629ZM49.6879 6.55136C49.7736 6.39444 49.8936 6.26449 50.1043 6.25223C50.2243 6.24487 50.381 6.27184 50.626 6.42141C53.5555 8.22845 55.2995 10.4841 55.2995 12.9336C55.2995 17.3519 49.6242 21.1449 41.5166 22.8048C40.9949 22.9054 40.6544 22.9054 40.5295 22.773C40.4536 22.6896 40.4291 22.5523 40.5295 22.3758C40.581 22.285 40.6397 22.2041 40.7451 22.0791C45.1614 16.8664 48.5293 9.17487 49.4846 6.95837C49.5556 6.8039 49.6291 6.65189 49.6854 6.55381M27.7338 6.38953C28.1502 5.42349 28.8679 3.35656 30.5163 2.53763C31.016 2.28999 31.6308 2.16984 32.1844 2.15513C32.3093 2.15268 32.3975 2.15513 32.4342 2.15513C37.044 2.15513 41.3329 2.79507 44.9262 3.88861C44.9556 3.90087 45.0389 3.93275 45.0634 3.9401C45.3965 4.05044 45.5655 4.20491 45.5655 4.3937C45.5655 4.55798 45.4798 4.68302 45.3622 4.79826C45.3083 4.84975 45.2348 4.91595 45.1344 4.99932C44.3041 5.69565 41.8081 7.50269 37.1004 9.30482C35.4519 9.93741 33.3846 10.7244 31.2267 11.1829C29.9579 11.4526 25.255 12.171 27.7363 6.38953M23.2098 3.06478C23.729 2.96425 24.072 2.96425 24.1969 3.09911C24.2728 3.18247 24.2948 3.31978 24.1969 3.49386C24.143 3.58703 24.0866 3.66794 23.9789 3.79299C19.5626 9.00324 16.1971 16.6948 15.2418 18.9137C15.1684 19.0682 15.0973 19.2202 15.041 19.3207C14.9553 19.4776 14.8352 19.6051 14.6221 19.6198C14.507 19.6272 14.3454 19.5978 14.1004 19.4507C11.1685 17.6436 9.42691 15.3879 9.42691 12.9409C9.42691 8.52267 15.1022 4.72716 23.2122 3.06723" fill="#002C5E"/>
</svg>
